<svg id="Layer_2" data-name="Layer 2" xmlns="http://www.w3.org/2000/svg" viewBox="0 0 2500 2500"><defs><style>.cls-1{fill:#d9261c;fill-rule:evenodd;}</style></defs><path class="cls-1" d="M1251,478.38C561.09,478.38,0,824,0,1251c0,423.7,561.09,770.62,1251,770.62,693.76,0,1249-346.92,1249-770.62C2500,824,1944.76,478.38,1251,478.38Zm0,148.12c645.16,0,1166.93,277.26,1166.93,624.5,0,344-521.77,622.5-1166.93,622.5C610.17,1873.5,88.07,1595,88.07,1251c0-347.24,522.1-624.5,1162.93-624.5ZM356.28,962.77v574.46H504.4V1295H754.61v102.07H536.43v140.12H816.65l84.07-58V1287l-38-36,38-34V1052.84l-76.06-90.07Zm604.49,0V1245l62.05,60,138.11-2V1166.94l-26-24V962.78H960.77Zm424.34,0v180.14l-26,24H1193v370.3h172.14V1303l130.11,2,62-58V962.77Zm232.19,0v574.46h156.12V1106.89h170.13l46,52v236.19H1805.45v142.11h338.27V1064.86l-86.07-102.09ZM504.4,1102.88H752.6V1205H504.4Z"/></svg>