<svg xmlns="http://www.w3.org/2000/svg" viewBox="0 0 2499.1 325.62"><defs><style>.cls-1{fill:#5e5e5e;}</style></defs><g id="Layer_3" data-name="Layer 3"><g id="TESLA"><path class="cls-1" d="M2136.26,1216.36v196.45h62.79v-131h229.64v131h62.79V1216.36H2136.26m55.61-63.69h242.2c34.09-6.28,58.31-36.77,65.48-65.48H2126.39c7.18,28.71,32.29,58.31,65.48,65.48m-246.68,260.14c31.4-13.46,48.44-36.78,55.62-63.69H1718.25v-261h-63.69v324.72h290.63m-761.57-261h224.26c34.08-9.87,61.89-35.88,69.07-63.69H1121.73v192h290.63v67.28H1184.52c-35.88,9.86-66.38,34.08-81.63,65.48h372.26V1216.36H1184.52l-.9-64.58m-552.56.89H873.25c34.09-6.28,59.2-36.77,65.48-65.48H564.68c7.17,28.71,32.29,58.31,66.38,65.48m0,128.28H873.25c34.09-6.28,59.2-36.78,65.48-65.49H564.68c7.17,28.71,32.29,58.31,66.38,65.49m0,131.86H873.25c34.09-6.28,59.2-36.78,65.48-65.48H564.68c7.17,28.7,32.29,59.2,66.38,65.48" transform="translate(-0.45 -1087.19)"/><path class="cls-1" d="M.45,1088.09c7.17,28.7,32.29,57.41,65.48,64.58H168.19l5.38,1.8v257.44h63.69V1154.47l5.38-1.8H344.91c34.08-9,58.3-35.88,65.48-64.58v-.9l-409.94.9" transform="translate(-0.45 -1087.19)"/></g></g></svg>